<?xml version="1.0" standalone="no"?>
<!DOCTYPE svg PUBLIC "-//W3C//DTD SVG 20010904//EN"
 "http://www.w3.org/TR/2001/REC-SVG-20010904/DTD/svg10.dtd">
<svg version="1.0" xmlns="http://www.w3.org/2000/svg"
 width="640.000000pt" height="640.000000pt" viewBox="0 0 640.000000 640.000000"
 preserveAspectRatio="xMidYMid meet">
<metadata>
Created by potrace 1.16, written by Peter Selinger 2001-2019
</metadata>
<g transform="translate(0.000000,640.000000) scale(0.100000,-0.100000)"
fill="#000000" stroke="none">
<path d="M0 4088 c1 -2294 1 -2313 20 -2276 23 43 72 64 128 53 112 -20 596
-267 803 -409 44 -31 59 -36 108 -36 69 0 86 12 66 49 -20 39 -143 154 -200
186 -66 37 -174 124 -256 205 -132 131 -200 252 -185 333 8 42 65 97 101 97
l24 0 -18 43 c-64 150 -139 434 -167 638 -14 97 -19 114 -41 134 -22 18 -27
33 -31 81 -12 167 95 784 183 1049 241 735 761 1327 1458 1660 595 284 1281
348 1925 180 746 -196 1390 -704 1756 -1388 114 -212 213 -481 261 -707 14
-69 37 -174 51 -235 32 -146 61 -348 69 -482 7 -117 -2 -150 -42 -168 -17 -7
-23 -21 -28 -60 -30 -239 -95 -498 -180 -716 -5 -13 2 -20 29 -29 67 -22 99
-95 77 -173 -35 -120 -256 -352 -435 -457 -56 -34 -172 -140 -204 -188 -12
-18 -12 -25 -1 -38 11 -13 26 -15 74 -12 51 5 70 12 125 50 141 97 456 265
672 357 137 59 204 53 240 -19 17 -33 18 69 18 2278 l0 2312 -3200 0 -3200 0
0 -2312z"/>
<path d="M2315 4261 c-97 -56 -182 -160 -236 -289 -49 -118 -69 -228 -76 -414
l-6 -166 26 -26 c14 -14 30 -26 35 -26 25 0 66 50 108 130 120 234 305 282
473 125 28 -26 67 -76 86 -111 49 -87 82 -124 111 -124 40 0 47 36 41 215 -8
250 -45 396 -131 524 -61 91 -128 144 -215 171 -92 29 -155 26 -216 -9z"/>
<path d="M3835 4261 c-97 -56 -182 -160 -236 -289 -50 -120 -69 -228 -76 -414
l-6 -166 26 -26 c14 -14 30 -26 35 -26 25 0 66 50 108 130 120 234 305 282
473 125 28 -26 67 -76 86 -111 49 -87 82 -124 111 -124 35 0 44 33 44 163 0
412 -125 678 -352 749 -89 27 -153 24 -213 -11z"/>
<path d="M4432 2735 c-18 -8 -59 -39 -90 -68 -172 -162 -494 -302 -847 -368
-145 -27 -405 -36 -556 -19 -159 17 -370 62 -463 99 -106 40 -258 134 -381
232 -155 125 -215 153 -215 102 0 -59 174 -298 311 -429 178 -169 431 -291
704 -340 139 -25 435 -25 600 0 178 27 258 50 381 110 239 117 440 310 595
574 l51 86 -22 18 c-26 21 -26 21 -68 3z"/>
<path d="M0 1451 c0 -221 0 -223 19 -200 18 23 26 24 123 23 128 -1 214 -28
458 -145 177 -84 243 -105 284 -89 53 20 42 97 -19 139 -19 13 -104 47 -188
76 -278 94 -471 193 -582 297 -35 32 -70 73 -79 90 -15 31 -16 22 -16 -191z"/>
<path d="M6385 1649 c-12 -35 -85 -108 -160 -159 -127 -86 -304 -167 -523
-239 -67 -23 -140 -52 -163 -66 -57 -36 -76 -96 -42 -130 32 -33 106 -16 269
63 235 112 344 151 470 167 63 8 128 -8 149 -38 14 -20 15 -2 15 201 0 122 -2
222 -4 222 -3 0 -8 -10 -11 -21z"/>
<path d="M0 573 l0 -573 3200 0 3200 0 0 570 0 570 -41 -45 c-87 -94 -363
-197 -724 -270 -47 -9 -85 -23 -92 -32 -18 -24 -16 -67 5 -93 l18 -22 149 26
c196 33 350 49 402 41 31 -4 50 -16 77 -46 45 -49 47 -86 8 -129 -31 -36 -25
-34 -377 -70 -243 -24 -298 -37 -380 -90 -165 -106 -414 -170 -665 -170 -298
0 -505 72 -651 227 -37 40 -78 96 -97 136 -18 37 -35 67 -37 67 -1 0 -58 -13
-126 -29 -456 -108 -882 -108 -1338 0 -68 16 -124 29 -125 29 -2 0 -20 -35
-42 -77 -59 -116 -147 -200 -277 -262 -56 -27 -131 -56 -167 -65 -224 -54
-489 -41 -724 34 -119 38 -202 75 -238 105 -55 46 -128 64 -376 90 -336 36
-334 36 -362 53 -37 23 -49 43 -50 81 0 26 9 42 40 74 l41 40 127 -6 c107 -5
385 -44 444 -63 20 -6 48 40 48 79 0 39 -28 53 -164 82 -355 75 -631 187 -687
279 -19 31 -19 22 -19 -541z"/>
</g>
</svg>
